{"title":"Ken Burns - Baseball - The Tenth Inning Xvid Cd1^D^","uid":5889532,"size":732192768,"categoryP":"video","categoryS":"tv_shows","magnet":"?xt=urn:btih:2e48d2a37c3a4384cb20b3c54ab4b53e12e851a1&amp;dn=Ken+Burns+-+Baseball+-+The+Tenth+Inning+Xvid+Cd1%5ED%5E&amp;tr=udp%3A%2F%2Ftracker.openbittorrent.com%3A80&amp;tr=udp%3A%2F%2Fopen.demonii.com%3A1337&amp;tr=udp%3A%2F%2Ftracker.coppersurfer.tk%3A6969&amp;tr=udp%3A%2F%2Fexodus.desync.com%3A6969","seeders":1,"leechers":0,"uploader":"upsdave","files":-1,"time":1287185826,"description":"Top Of The Tenth;\n\nIn an age of globalization and deregulation, a cataclysmic strike over money and power brings baseball to the brink; dazzlingly talented Latin players transform the sport. Cal Ripken and Barry Bonds are simply superb.\n\nFormat                          : AVI\nFormat/Info                      : Audio Video Interleave\nFile size                        : 698 MiB\nDuration                        : 1h 56mn\nOverall bit rate                : 836 Kbps\nWriting application              : VirtualDubMod 1.5.4.1 (build 2178/release)\nWriting library                  : VirtualDubMod build 2178/release\n\nVideo\nID                              : 0\nFormat                          : MPEG-4 Visual\nFormat profile                  : Advanced Simple@L5\nFormat settings, BVOP            : Yes\nFormat settings, QPel            : No\nFormat settings, GMC            : No warppoints\nFormat settings, Matrix          : Custom\nCodec ID                        : XVID\nCodec ID/Hint                    : XviD\nDuration                        : 1h 56mn\nBit rate                        : 708 Kbps\nWidth                            : 640 pixels\nHeight                          : 368 pixels\nDisplay aspect ratio            : 16:9\nFrame rate                      : 29.970 fps\nColor space                      : YUV\nChroma subsampling              : 4:2:0\nBit depth                        : 8 bits\nScan type                        : Progressive\nBits/(Pixel*Frame)              : 0.100\nStream size                      : 591 MiB (85%)\nWriting library                  : XviD 1.2.1 (UTC 2008-12-04)\n\nAudio\nID                              : 1\nFormat                          : MPEG Audio\nFormat version                  : Version 1\nFormat profile                  : Layer 3\nMode                            : Joint stereo\nMode extension                  : MS Stereo\nCodec ID                        : 55\nCodec ID/Hint                    : MP3\nDuration                        : 1h 56mn\nBit rate mode                    : Variable\nBit rate                        : 115 Kbps\nNominal bit rate                : 128 Kbps\nChannel(s)                      : 2 channels\nSampling rate                    : 48.0 KHz\nStream size                      : 96.0 MiB (14%)\nAlignment                        : Aligned on interleaves\nInterleave, duration            : 24 ms (0.72 video frame)\nInterleave, preload duration    : 408 ms\nWriting library                  : LAME3.97\nEncoding settings                : -m j -V 4 -q 2 -lowpass 17 --abr 128 \n\n\n","torrent":{"xt":"urn:btih:2e48d2a37c3a4384cb20b3c54ab4b53e12e851a1","amp;dn":"Ken+Burns+-+Baseball+-+The+Tenth+Inning+Xvid+Cd1%5ED%5E","amp;tr":["udp%3A%2F%2Ftracker.openbittorrent.com%3A80","udp%3A%2F%2Fopen.demonii.com%3A1337","udp%3A%2F%2Ftracker.coppersurfer.tk%3A6969","udp%3A%2F%2Fexodus.desync.com%3A6969"],"infoHash":"2e48d2a37c3a4384cb20b3c54ab4b53e12e851a1","infoHashBuffer":{"type":"Buffer","data":[46,72,210,163,124,58,67,132,203,32,179,197,74,180,181,62,18,232,81,161]},"announce":[],"urlList":[]}}